<svg width="320" height="177" viewBox="0 0 320 177" fill="none" xmlns="http://www.w3.org/2000/svg">
<g clip-path="url(#clip0)">
<path d="M68.9645 63.7282C63.6571 63.7282 59.3545 59.4257 59.3545 54.1183C59.3545 48.8109 63.6571 44.5084 68.9645 44.5084C74.2719 44.5084 78.5744 48.8109 78.5744 54.1183C78.5744 59.4257 74.2719 63.7282 68.9645 63.7282Z" fill="white"/>
<path d="M55.8604 54.1185C55.8518 46.8814 61.7121 41.0088 68.9494 41C76.1867 40.9912 82.0608 46.8516 82.0679 54.0905C82.0749 59.9875 78.1417 65.1629 72.4579 66.7355V105.665C72.4579 115.797 80.6718 124.011 90.8042 124.011C100.937 124.011 109.15 115.797 109.15 105.665V92.4029L104.066 99.0599C102.893 100.594 100.699 100.888 99.1649 99.7152C97.6307 98.5428 97.3373 96.3482 98.5096 94.8142L116.14 71.7502V105.665C116.14 119.657 104.796 131 90.8042 131C76.8121 131 65.4688 119.657 65.4688 105.665V66.7355C59.8007 65.1594 55.8727 60.0033 55.8604 54.1185ZM68.9494 64C72.3268 64 79 57.4681 79 54.0905C79 50.713 72.3426 44 68.965 44C65.5876 44 59 50.713 59 54.0905C59 57.4681 65.572 64 68.9494 64Z" fill="#FFD400"/>
</g>
<path d="M69 65.6667C62.5567 65.6667 57.3333 60.4433 57.3333 54C57.3333 47.5567 62.5567 42.3333 69 42.3333C75.4433 42.3333 80.6667 47.5567 80.6667 54C80.6667 60.4433 75.4433 65.6667 69 65.6667Z" stroke="#FFD400" stroke-width="2" stroke-linecap="round" stroke-linejoin="round"/>
<path d="M57.45 53.125H61.65" stroke="#FFD400" stroke-width="2" stroke-linecap="round" stroke-linejoin="round"/>
<path d="M76.35 53.125H80.55" stroke="#FFD400" stroke-width="2" stroke-linecap="round" stroke-linejoin="round"/>
<path d="M69 46.65V42.275" stroke="#FFD400" stroke-width="2" stroke-linecap="round" stroke-linejoin="round"/>
<path d="M69 65.55V61.175" stroke="#FFD400" stroke-width="2" stroke-linecap="round" stroke-linejoin="round"/>
<path d="M149.208 47.728V69.904C149.208 72.272 148.68 74.416 147.624 76.336C146.6 78.224 145.032 79.728 142.92 80.848C140.84 81.936 138.2 82.48 135 82.48C130.456 82.48 127 81.328 124.632 79.024C122.264 76.688 121.08 73.616 121.08 69.808V47.728H128.328V68.704C128.328 71.52 128.904 73.504 130.056 74.656C131.208 75.808 132.92 76.384 135.192 76.384C137.56 76.384 139.272 75.76 140.328 74.512C141.416 73.264 141.96 71.312 141.96 68.656V47.728H149.208ZM175.313 74.224C175.313 76.88 174.369 78.928 172.481 80.368C170.625 81.776 167.841 82.48 164.129 82.48C162.305 82.48 160.737 82.352 159.425 82.096C158.113 81.872 156.801 81.488 155.489 80.944V75.04C156.897 75.68 158.417 76.208 160.049 76.624C161.681 77.04 163.121 77.248 164.369 77.248C165.777 77.248 166.769 77.04 167.345 76.624C167.953 76.208 168.257 75.664 168.257 74.992C168.257 74.544 168.129 74.144 167.873 73.792C167.649 73.44 167.137 73.04 166.337 72.592C165.537 72.144 164.289 71.568 162.593 70.864C160.961 70.16 159.617 69.472 158.561 68.8C157.505 68.096 156.721 67.264 156.209 66.304C155.697 65.312 155.441 64.08 155.441 62.608C155.441 60.176 156.385 58.352 158.273 57.136C160.161 55.92 162.673 55.312 165.809 55.312C167.441 55.312 168.993 55.472 170.465 55.792C171.937 56.112 173.457 56.64 175.025 57.376L172.865 62.512C171.585 61.968 170.369 61.52 169.217 61.168C168.065 60.784 166.897 60.592 165.713 60.592C163.601 60.592 162.545 61.168 162.545 62.32C162.545 62.736 162.673 63.12 162.929 63.472C163.217 63.792 163.745 64.144 164.513 64.528C165.313 64.912 166.481 65.424 168.017 66.064C169.521 66.672 170.817 67.312 171.905 67.984C172.993 68.624 173.825 69.44 174.401 70.432C175.009 71.392 175.313 72.656 175.313 74.224ZM191.685 55.312C195.301 55.312 198.165 56.352 200.277 58.432C202.389 60.48 203.445 63.408 203.445 67.216V70.672H186.549C186.613 72.688 187.205 74.272 188.325 75.424C189.477 76.576 191.061 77.152 193.077 77.152C194.773 77.152 196.309 76.992 197.685 76.672C199.061 76.32 200.485 75.792 201.957 75.088V80.608C200.677 81.248 199.317 81.712 197.877 82C196.469 82.32 194.757 82.48 192.741 82.48C190.117 82.48 187.797 82 185.781 81.04C183.765 80.048 182.181 78.56 181.029 76.576C179.877 74.592 179.301 72.096 179.301 69.088C179.301 66.016 179.813 63.472 180.837 61.456C181.893 59.408 183.349 57.872 185.205 56.848C187.061 55.824 189.221 55.312 191.685 55.312ZM191.733 60.4C190.357 60.4 189.205 60.848 188.277 61.744C187.381 62.64 186.853 64.032 186.693 65.92H196.725C196.693 64.32 196.277 63.008 195.477 61.984C194.677 60.928 193.429 60.4 191.733 60.4ZM126.984 126L117 99.792H124.488L129.528 114.72C129.816 115.616 130.04 116.544 130.2 117.504C130.392 118.464 130.504 119.328 130.536 120.096H130.728C130.824 118.368 131.176 116.576 131.784 114.72L136.824 99.792H144.312L134.328 126H126.984ZM151.672 89.52C152.728 89.52 153.64 89.776 154.408 90.288C155.176 90.768 155.56 91.68 155.56 93.024C155.56 94.336 155.176 95.248 154.408 95.76C153.64 96.272 152.728 96.528 151.672 96.528C150.584 96.528 149.656 96.272 148.888 95.76C148.152 95.248 147.784 94.336 147.784 93.024C147.784 91.68 148.152 90.768 148.888 90.288C149.656 89.776 150.584 89.52 151.672 89.52ZM155.224 99.792V126H148.072V99.792H155.224ZM173.449 99.264C176.969 99.264 179.657 100.032 181.513 101.568C183.401 103.072 184.345 105.392 184.345 108.528V126H179.353L177.961 122.448H177.769C176.649 123.856 175.465 124.88 174.217 125.52C172.969 126.16 171.257 126.48 169.081 126.48C166.745 126.48 164.809 125.808 163.273 124.464C161.737 123.088 160.969 120.992 160.969 118.176C160.969 115.392 161.945 113.344 163.897 112.032C165.849 110.688 168.777 109.952 172.681 109.824L177.241 109.68V108.528C177.241 107.152 176.873 106.144 176.137 105.504C175.433 104.864 174.441 104.544 173.161 104.544C171.881 104.544 170.633 104.736 169.417 105.12C168.201 105.472 166.985 105.92 165.769 106.464L163.417 101.616C164.825 100.88 166.377 100.304 168.073 99.888C169.801 99.472 171.593 99.264 173.449 99.264ZM177.241 113.856L174.457 113.952C172.153 114.016 170.553 114.432 169.657 115.2C168.761 115.968 168.313 116.976 168.313 118.224C168.313 119.312 168.633 120.096 169.273 120.576C169.913 121.024 170.745 121.248 171.769 121.248C173.305 121.248 174.601 120.8 175.657 119.904C176.713 118.976 177.241 117.68 177.241 116.016V113.856ZM206.786 97.296C204.002 97.296 201.874 98.336 200.402 100.416C198.93 102.496 198.194 105.344 198.194 108.96C198.194 112.608 198.866 115.44 200.21 117.456C201.586 119.44 203.778 120.432 206.786 120.432C208.194 120.432 209.586 120.272 210.962 119.952C212.37 119.632 213.89 119.184 215.522 118.608V124.704C214.018 125.312 212.53 125.76 211.058 126.048C209.586 126.336 207.938 126.48 206.114 126.48C202.594 126.48 199.682 125.76 197.378 124.32C195.106 122.848 193.426 120.8 192.338 118.176C191.25 115.52 190.706 112.432 190.706 108.912C190.706 105.456 191.33 102.4 192.578 99.744C193.826 97.088 195.634 95.008 198.002 93.504C200.402 92 203.33 91.248 206.786 91.248C208.482 91.248 210.178 91.472 211.874 91.92C213.602 92.336 215.25 92.912 216.818 93.648L214.466 99.552C213.186 98.944 211.89 98.416 210.578 97.968C209.298 97.52 208.034 97.296 206.786 97.296ZM233.028 99.312C236.644 99.312 239.508 100.352 241.62 102.432C243.732 104.48 244.788 107.408 244.788 111.216V114.672H227.892C227.956 116.688 228.548 118.272 229.668 119.424C230.82 120.576 232.404 121.152 234.42 121.152C236.116 121.152 237.652 120.992 239.028 120.672C240.404 120.32 241.828 119.792 243.3 119.088V124.608C242.02 125.248 240.66 125.712 239.22 126C237.812 126.32 236.1 126.48 234.084 126.48C231.46 126.48 229.14 126 227.124 125.04C225.108 124.048 223.524 122.56 222.372 120.576C221.22 118.592 220.644 116.096 220.644 113.088C220.644 110.016 221.156 107.472 222.18 105.456C223.236 103.408 224.692 101.872 226.548 100.848C228.404 99.824 230.564 99.312 233.028 99.312ZM233.076 104.4C231.7 104.4 230.548 104.848 229.62 105.744C228.724 106.64 228.196 108.032 228.036 109.92H238.068C238.036 108.32 237.62 107.008 236.82 105.984C236.02 104.928 234.772 104.4 233.076 104.4ZM265.18 99.312C268.124 99.312 270.508 100.464 272.332 102.768C274.156 105.04 275.068 108.4 275.068 112.848C275.068 117.296 274.124 120.688 272.236 123.024C270.348 125.328 267.932 126.48 264.988 126.48C263.1 126.48 261.596 126.144 260.476 125.472C259.356 124.768 258.444 123.984 257.74 123.12H257.356C257.612 124.464 257.74 125.744 257.74 126.96V137.52H250.588V99.792H256.396L257.404 103.2H257.74C258.444 102.144 259.388 101.232 260.572 100.464C261.756 99.696 263.292 99.312 265.18 99.312ZM262.876 105.024C261.02 105.024 259.708 105.6 258.94 106.752C258.204 107.904 257.804 109.664 257.74 112.032V112.8C257.74 115.328 258.108 117.28 258.844 118.656C259.612 120 260.988 120.672 262.972 120.672C264.604 120.672 265.804 120 266.572 118.656C267.372 117.28 267.772 115.312 267.772 112.752C267.772 107.6 266.14 105.024 262.876 105.024Z" fill="#61DAFB"/>
<path d="M149.208 47.728H150.208V46.728H149.208V47.728ZM147.624 76.336L146.748 75.8541L146.745 75.8592L147.624 76.336ZM142.92 80.848L143.384 81.7341L143.389 81.7315L142.92 80.848ZM124.632 79.024L123.93 79.7359L123.935 79.7407L124.632 79.024ZM121.08 47.728V46.728H120.08V47.728H121.08ZM128.328 47.728H129.328V46.728H128.328V47.728ZM130.056 74.656L129.349 75.3631L129.349 75.3631L130.056 74.656ZM140.328 74.512L139.574 73.8549L139.569 73.8604L139.565 73.8661L140.328 74.512ZM141.96 47.728V46.728H140.96V47.728H141.96ZM148.208 47.728V69.904H150.208V47.728H148.208ZM148.208 69.904C148.208 72.1175 147.716 74.0935 146.748 75.8541L148.5 76.8179C149.644 74.7385 150.208 72.4265 150.208 69.904H148.208ZM146.745 75.8592C145.825 77.555 144.41 78.9259 142.451 79.9645L143.389 81.7315C145.654 80.5301 147.375 78.893 148.503 76.8128L146.745 75.8592ZM142.457 79.9619C140.562 80.9529 138.094 81.48 135 81.48V83.48C138.306 83.48 141.118 82.9191 143.383 81.7341L142.457 79.9619ZM135 81.48C130.617 81.48 127.45 80.3704 125.329 78.3073L123.935 79.7407C126.55 82.2856 130.295 83.48 135 83.48V81.48ZM125.334 78.3121C123.185 76.1917 122.08 73.3906 122.08 69.808H120.08C120.08 73.8414 121.343 77.1843 123.93 79.7359L125.334 78.3121ZM122.08 69.808V47.728H120.08V69.808H122.08ZM121.08 48.728H128.328V46.728H121.08V48.728ZM127.328 47.728V68.704H129.328V47.728H127.328ZM127.328 68.704C127.328 71.6055 127.912 73.9263 129.349 75.3631L130.763 73.9489C129.896 73.0817 129.328 71.4345 129.328 68.704H127.328ZM129.349 75.3631C130.752 76.7664 132.761 77.384 135.192 77.384V75.384C133.079 75.384 131.664 74.8496 130.763 73.9489L129.349 75.3631ZM135.192 77.384C137.718 77.384 139.772 76.7168 141.091 75.1579L139.565 73.8661C138.772 74.8032 137.402 75.384 135.192 75.384V77.384ZM141.082 75.1691C142.4 73.6568 142.96 71.416 142.96 68.656H140.96C140.96 71.208 140.432 72.8712 139.574 73.8549L141.082 75.1691ZM142.96 68.656V47.728H140.96V68.656H142.96ZM141.96 48.728H149.208V46.728H141.96V48.728ZM172.481 80.368L173.086 81.1647L173.088 81.1631L172.481 80.368ZM159.425 82.096L159.617 81.1145L159.605 81.1122L159.594 81.1103L159.425 82.096ZM155.489 80.944H154.489V81.6119L155.106 81.8677L155.489 80.944ZM155.489 75.04L155.903 74.1296L154.489 73.487V75.04H155.489ZM167.345 76.624L166.781 75.7987L166.77 75.8059L166.76 75.8133L167.345 76.624ZM167.873 73.792L167.03 74.3289L167.046 74.3551L167.065 74.3802L167.873 73.792ZM162.593 70.864L162.197 71.7823L162.21 71.7876L162.593 70.864ZM158.561 68.8L158.007 69.632L158.015 69.638L158.024 69.6437L158.561 68.8ZM156.209 66.304L155.321 66.7627L155.327 66.7746L156.209 66.304ZM158.273 57.136L158.815 57.9767L158.815 57.9767L158.273 57.136ZM170.465 55.792L170.253 56.7692L170.253 56.7692L170.465 55.792ZM175.025 57.376L175.947 57.7637L176.319 56.8787L175.45 56.4708L175.025 57.376ZM172.865 62.512L172.474 63.4323L173.398 63.8249L173.787 62.8997L172.865 62.512ZM169.217 61.168L168.901 62.1167L168.913 62.1207L168.925 62.1244L169.217 61.168ZM162.929 63.472L162.121 64.0602L162.151 64.1023L162.186 64.141L162.929 63.472ZM164.513 64.528L164.066 65.4224L164.073 65.426L164.081 65.4295L164.513 64.528ZM168.017 66.064L167.633 66.9871L167.642 66.9911L168.017 66.064ZM171.905 67.984L171.38 68.8348L171.389 68.8405L171.398 68.8459L171.905 67.984ZM174.401 70.432L173.536 70.9341L173.546 70.9508L173.556 70.9671L174.401 70.432ZM174.313 74.224C174.313 76.6104 173.483 78.3463 171.875 79.5729L173.088 81.1631C175.256 79.5097 176.313 77.1496 176.313 74.224H174.313ZM171.877 79.5713C170.271 80.7896 167.743 81.48 164.129 81.48V83.48C167.939 83.48 170.98 82.7624 173.086 81.1647L171.877 79.5713ZM164.129 81.48C162.348 81.48 160.848 81.3547 159.617 81.1145L159.234 83.0775C160.627 83.3493 162.262 83.48 164.129 83.48V81.48ZM159.594 81.1103C158.36 80.8997 157.12 80.5375 155.872 80.0203L155.106 81.8677C156.483 82.4385 157.867 82.8443 159.257 83.0817L159.594 81.1103ZM156.489 80.944V75.04H154.489V80.944H156.489ZM155.075 75.9504C156.542 76.6169 158.118 77.1637 159.802 77.593L160.296 75.655C158.716 75.2523 157.253 74.7431 155.903 74.1296L155.075 75.9504ZM159.802 77.593C161.489 78.0229 163.015 78.248 164.369 78.248V76.248C163.228 76.248 161.874 76.0571 160.296 75.655L159.802 77.593ZM164.369 78.248C165.815 78.248 167.084 78.0464 167.931 77.4347L166.76 75.8133C166.455 76.0336 165.74 76.248 164.369 76.248V78.248ZM167.91 77.4493C168.76 76.868 169.257 76.0298 169.257 74.992H167.257C167.257 75.2982 167.147 75.548 166.781 75.7987L167.91 77.4493ZM169.257 74.992C169.257 74.3393 169.066 73.732 168.682 73.2038L167.065 74.3802C167.192 74.556 167.257 74.7487 167.257 74.992H169.257ZM168.717 73.2551C168.348 72.675 167.636 72.1734 166.826 71.7195L165.849 73.4645C166.638 73.9066 166.951 74.205 167.03 74.3289L168.717 73.2551ZM166.826 71.7195C165.973 71.2418 164.681 70.6477 162.977 69.9404L162.21 71.7876C163.898 72.4883 165.102 73.0462 165.849 73.4645L166.826 71.7195ZM162.989 69.9458C161.388 69.2549 160.095 68.5907 159.098 67.9563L158.024 69.6437C159.14 70.3533 160.535 71.0651 162.197 71.7822L162.989 69.9458ZM159.116 67.9679C158.174 67.3402 157.514 66.6252 157.092 65.8334L155.327 66.7746C155.929 67.9028 156.836 68.8518 158.007 69.632L159.116 67.9679ZM157.098 65.8454C156.679 65.033 156.441 63.9693 156.441 62.608H154.441C154.441 64.1907 154.716 65.591 155.321 66.7626L157.098 65.8454ZM156.441 62.608C156.441 60.4823 157.24 58.9911 158.815 57.9767L157.732 56.2953C155.531 57.7129 154.441 59.8697 154.441 62.608H156.441ZM158.815 57.9767C160.489 56.8983 162.792 56.312 165.809 56.312V54.312C162.554 54.312 159.833 54.9417 157.732 56.2953L158.815 57.9767ZM165.809 56.312C167.376 56.312 168.856 56.4655 170.253 56.7692L170.678 54.8148C169.13 54.4784 167.507 54.312 165.809 54.312V56.312ZM170.253 56.7692C171.642 57.0711 173.09 57.5725 174.6 58.2812L175.45 56.4708C173.824 55.7075 172.233 55.1529 170.678 54.8148L170.253 56.7692ZM174.103 56.9883L171.943 62.1243L173.787 62.8997L175.947 57.7637L174.103 56.9883ZM173.256 61.5917C171.949 61.036 170.7 60.5753 169.509 60.2116L168.925 62.1244C170.039 62.4647 171.222 62.9 172.474 63.4323L173.256 61.5917ZM169.533 60.2193C168.282 59.8022 167.007 59.592 165.713 59.592V61.592C166.787 61.592 167.848 61.7658 168.901 62.1167L169.533 60.2193ZM165.713 59.592C164.599 59.592 163.606 59.7383 162.858 60.1461C162.47 60.3582 162.129 60.6511 161.89 61.0425C161.649 61.4363 161.545 61.8739 161.545 62.32H163.545C163.545 62.1901 163.573 62.1237 163.597 62.0854C163.621 62.0449 163.677 61.9778 163.816 61.9019C164.124 61.7337 164.715 61.592 165.713 61.592V59.592ZM161.545 62.32C161.545 62.9575 161.746 63.5457 162.121 64.0602L163.738 62.8838C163.6 62.6943 163.545 62.5145 163.545 62.32H161.545ZM162.186 64.141C162.605 64.6068 163.275 65.0269 164.066 65.4224L164.96 63.6336C164.216 63.2611 163.829 62.9772 163.673 62.803L162.186 64.141ZM164.081 65.4295C164.905 65.8251 166.092 66.3451 167.633 66.9871L168.402 65.1409C166.871 64.5029 165.722 63.9989 164.946 63.6265L164.081 65.4295ZM167.642 66.9911C169.107 67.5833 170.35 68.1991 171.38 68.8348L172.431 67.1332C171.284 66.4249 169.935 65.7607 168.392 65.1369L167.642 66.9911ZM171.398 68.8459C172.353 69.4077 173.055 70.1054 173.536 70.9341L175.266 69.9299C174.595 68.7746 173.633 67.8403 172.412 67.1221L171.398 68.8459ZM173.556 70.9671C174.031 71.7171 174.313 72.7761 174.313 74.224H176.313C176.313 72.5359 175.987 71.0669 175.246 69.8969L173.556 70.9671ZM200.277 58.432L199.575 59.1445L199.58 59.1499L200.277 58.432ZM203.445 70.672V71.672H204.445V70.672H203.445ZM186.549 70.672V69.672H185.516L185.549 70.7037L186.549 70.672ZM188.325 75.424L187.608 76.1211L187.618 76.1311L188.325 75.424ZM197.685 76.672L197.911 77.646L197.922 77.6435L197.932 77.6408L197.685 76.672ZM201.957 75.088H202.957V73.5013L201.525 74.1859L201.957 75.088ZM201.957 80.608L202.404 81.5024L202.957 81.226V80.608H201.957ZM197.877 82L197.681 81.0194L197.668 81.022L197.655 81.0249L197.877 82ZM185.781 81.04L185.339 81.9373L185.351 81.9429L185.781 81.04ZM181.029 76.576L180.164 77.0781L180.164 77.0781L181.029 76.576ZM180.837 61.456L179.948 60.9977L179.945 61.0031L180.837 61.456ZM185.205 56.848L184.722 55.9724L184.722 55.9724L185.205 56.848ZM188.277 61.744L187.582 61.0246L187.576 61.0307L187.57 61.0369L188.277 61.744ZM186.693 65.92L185.696 65.8356L185.604 66.92H186.693V65.92ZM196.725 65.92V66.92H197.745L197.724 65.9L196.725 65.92ZM195.477 61.984L194.68 62.5879L194.684 62.5938L194.689 62.5996L195.477 61.984ZM191.685 56.312C195.099 56.312 197.69 57.2877 199.575 59.1445L200.978 57.7195C198.64 55.4163 195.502 54.312 191.685 54.312V56.312ZM199.58 59.1499C201.446 60.9584 202.445 63.595 202.445 67.216H204.445C204.445 63.221 203.332 60.0016 200.973 57.7141L199.58 59.1499ZM202.445 67.216V70.672H204.445V67.216H202.445ZM203.445 69.672H186.549V71.672H203.445V69.672ZM185.549 70.7037C185.619 72.9028 186.273 74.7479 187.608 76.1211L189.042 74.7269C188.137 73.7961 187.606 72.4732 187.548 70.6403L185.549 70.7037ZM187.618 76.1311C188.999 77.5131 190.862 78.152 193.077 78.152V76.152C191.259 76.152 189.954 75.6389 189.032 74.7169L187.618 76.1311ZM193.077 78.152C194.834 78.152 196.448 77.9863 197.911 77.646L197.458 75.698C196.169 75.9977 194.711 76.152 193.077 76.152V78.152ZM197.932 77.6408C199.38 77.2704 200.866 76.7182 202.388 75.9901L201.525 74.1859C200.104 74.8658 198.741 75.3696 197.437 75.7032L197.932 77.6408ZM200.957 75.088V80.608H202.957V75.088H200.957ZM201.509 79.7136C200.311 80.3128 199.036 80.7484 197.681 81.0194L198.073 82.9806C199.598 82.6756 201.042 82.1832 202.404 81.5024L201.509 79.7136ZM197.655 81.0249C196.342 81.3233 194.709 81.48 192.741 81.48V83.48C194.804 83.48 196.595 83.3167 198.098 82.9751L197.655 81.0249ZM192.741 81.48C190.24 81.48 188.071 81.0229 186.211 80.1371L185.351 81.9429C187.523 82.9771 189.994 83.48 192.741 83.48V81.48ZM186.222 80.1427C184.387 79.2398 182.949 77.8911 181.893 76.0739L180.164 77.0781C181.413 79.2289 183.142 80.8562 185.339 81.9373L186.222 80.1427ZM181.893 76.0739C180.853 74.2827 180.301 71.973 180.301 69.088H178.301C178.301 72.219 178.9 74.9013 180.164 77.0781L181.893 76.0739ZM180.301 69.088C180.301 66.1197 180.796 63.7435 181.728 61.9089L179.945 61.0031C178.829 63.2005 178.301 65.9123 178.301 69.088H180.301ZM181.725 61.9143C182.699 60.0265 184.02 58.6434 185.688 57.7236L184.722 55.9724C182.677 57.1006 181.086 58.7895 179.948 60.9977L181.725 61.9143ZM185.688 57.7236C187.373 56.7936 189.362 56.312 191.685 56.312V54.312C189.079 54.312 186.748 54.8544 184.722 55.9724L185.688 57.7236ZM191.733 59.4C190.117 59.4 188.71 59.9358 187.582 61.0246L188.971 62.4634C189.7 61.7602 190.597 61.4 191.733 61.4V59.4ZM187.57 61.0369C186.441 62.1652 185.867 63.8249 185.696 65.8356L187.689 66.0044C187.839 64.2391 188.32 63.1148 188.984 62.4511L187.57 61.0369ZM186.693 66.92H196.725V64.92H186.693V66.92ZM197.724 65.9C197.689 64.1348 197.226 62.5991 196.265 61.3684L194.689 62.5996C195.327 63.4169 195.696 64.5052 195.725 65.94L197.724 65.9ZM196.274 61.3801C195.233 60.0067 193.645 59.4 191.733 59.4V61.4C193.212 61.4 194.12 61.8493 194.68 62.5879L196.274 61.3801ZM126.984 126L126.05 126.356L126.295 127H126.984V126ZM117 99.792V98.792H115.549L116.066 100.148L117 99.792ZM124.488 99.792L125.435 99.4721L125.206 98.792H124.488V99.792ZM129.528 114.72L130.48 114.414L130.478 114.407L130.475 114.4L129.528 114.72ZM130.2 117.504L129.214 117.668L129.216 117.684L129.219 117.7L130.2 117.504ZM130.536 120.096L129.537 120.138L129.577 121.096H130.536V120.096ZM130.728 120.096V121.096H131.674L131.726 120.151L130.728 120.096ZM131.784 114.72L130.837 114.4L130.834 114.409L131.784 114.72ZM136.824 99.792V98.792H136.106L135.877 99.4721L136.824 99.792ZM144.312 99.792L145.246 100.148L145.763 98.792H144.312V99.792ZM134.328 126V127H135.017L135.262 126.356L134.328 126ZM127.918 125.644L117.934 99.436L116.066 100.148L126.05 126.356L127.918 125.644ZM117 100.792H124.488V98.792H117V100.792ZM123.541 100.112L128.581 115.04L130.475 114.4L125.435 99.4721L123.541 100.112ZM128.576 115.026C128.849 115.874 129.061 116.755 129.214 117.668L131.186 117.34C131.019 116.333 130.783 115.358 130.48 114.414L128.576 115.026ZM129.219 117.7C129.404 118.622 129.508 119.433 129.537 120.138L131.535 120.054C131.5 119.223 131.38 118.306 131.181 117.308L129.219 117.7ZM130.536 121.096H130.728V119.096H130.536V121.096ZM131.726 120.151C131.817 118.521 132.15 116.815 132.734 115.031L130.834 114.409C130.202 116.337 129.831 118.215 129.73 120.041L131.726 120.151ZM132.731 115.04L137.771 100.112L135.877 99.4721L130.837 114.4L132.731 115.04ZM136.824 100.792H144.312V98.792H136.824V100.792ZM143.378 99.436L133.394 125.644L135.262 126.356L145.246 100.148L143.378 99.436ZM134.328 125H126.984V127H134.328V125ZM154.408 90.288L153.853 91.12L153.866 91.1282L153.878 91.136L154.408 90.288ZM154.408 95.76L153.853 94.9279L153.853 94.9279L154.408 95.76ZM148.888 95.76L148.317 96.5809L148.325 96.5866L148.333 96.592L148.888 95.76ZM148.888 90.288L149.434 91.1257L149.443 91.12L148.888 90.288ZM155.224 99.792H156.224V98.792H155.224V99.792ZM155.224 126V127H156.224V126H155.224ZM148.072 126H147.072V127H148.072V126ZM148.072 99.792V98.792H147.072V99.792H148.072ZM151.672 90.52C152.56 90.52 153.272 90.7328 153.853 91.12L154.963 89.4559C154.008 88.8192 152.896 88.52 151.672 88.52V90.52ZM153.878 91.136C154.228 91.3549 154.56 91.8452 154.56 93.024H156.56C156.56 91.5148 156.124 90.1811 154.938 89.44L153.878 91.136ZM154.56 93.024C154.56 94.1541 154.237 94.6725 153.853 94.9279L154.963 96.592C156.116 95.8235 156.56 94.5179 156.56 93.024H154.56ZM153.853 94.9279C153.272 95.3152 152.56 95.528 151.672 95.528V97.528C152.896 97.528 154.008 97.2288 154.963 96.592L153.853 94.9279ZM151.672 95.528C150.746 95.528 150.019 95.312 149.443 94.9279L148.333 96.592C149.293 97.232 150.423 97.528 151.672 97.528V95.528ZM149.459 94.9391C149.101 94.6902 148.784 94.1696 148.784 93.024H146.784C146.784 94.5024 147.203 95.8058 148.317 96.5809L149.459 94.9391ZM148.784 93.024C148.784 91.8292 149.11 91.3374 149.434 91.1256L148.342 89.4504C147.195 90.1986 146.784 91.5308 146.784 93.024H148.784ZM149.443 91.12C150.019 90.736 150.746 90.52 151.672 90.52V88.52C150.423 88.52 149.293 88.816 148.333 89.4559L149.443 91.12ZM154.224 99.792V126H156.224V99.792H154.224ZM155.224 125H148.072V127H155.224V125ZM149.072 126V99.792H147.072V126H149.072ZM148.072 100.792H155.224V98.792H148.072V100.792ZM181.513 101.568L180.876 102.338L180.883 102.344L180.89 102.35L181.513 101.568ZM184.345 126V127H185.345V126H184.345ZM179.353 126L178.422 126.365L178.671 127H179.353V126ZM177.961 122.448L178.892 122.083L178.643 121.448H177.961V122.448ZM177.769 122.448V121.448H177.287L176.987 121.825L177.769 122.448ZM174.217 125.52L173.761 124.63L174.217 125.52ZM163.273 124.464L162.606 125.209L162.615 125.217L163.273 124.464ZM163.897 112.032L164.455 112.862L164.464 112.856L163.897 112.032ZM172.681 109.824L172.65 108.824L172.648 108.825L172.681 109.824ZM177.241 109.68L177.273 110.68L178.241 110.649V109.68H177.241ZM176.137 105.504L175.464 106.244L175.473 106.251L175.481 106.259L176.137 105.504ZM169.417 105.12L169.695 106.081L169.707 106.077L169.718 106.074L169.417 105.12ZM165.769 106.464L164.869 106.9L165.293 107.773L166.177 107.377L165.769 106.464ZM163.417 101.616L162.954 100.73L162.094 101.179L162.517 102.052L163.417 101.616ZM168.073 99.888L167.839 98.9158L167.835 98.9168L168.073 99.888ZM177.241 113.856H178.241V112.821L177.207 112.857L177.241 113.856ZM174.457 113.952L174.485 114.952L174.492 114.951L174.457 113.952ZM169.657 115.2L169.006 114.441L169.006 114.441L169.657 115.2ZM169.273 120.576L168.673 121.376L168.686 121.386L168.7 121.395L169.273 120.576ZM175.657 119.904L176.304 120.667L176.311 120.661L176.317 120.655L175.657 119.904ZM173.449 100.264C176.841 100.264 179.266 101.006 180.876 102.338L182.151 100.798C180.049 99.0581 177.098 98.264 173.449 98.264V100.264ZM180.89 102.35C182.472 103.61 183.345 105.598 183.345 108.528H185.345C185.345 105.186 184.33 102.534 182.136 100.786L180.89 102.35ZM183.345 108.528V126H185.345V108.528H183.345ZM184.345 125H179.353V127H184.345V125ZM180.284 125.635L178.892 122.083L177.03 122.813L178.422 126.365L180.284 125.635ZM177.961 121.448H177.769V123.448H177.961V121.448ZM176.987 121.825C175.931 123.152 174.852 124.071 173.761 124.63L174.673 126.41C176.078 125.689 177.367 124.56 178.552 123.071L176.987 121.825ZM173.761 124.63C172.711 125.169 171.178 125.48 169.081 125.48V127.48C171.337 127.48 173.227 127.151 174.673 126.41L173.761 124.63ZM169.081 125.48C166.95 125.48 165.259 124.873 163.932 123.711L162.615 125.217C164.359 126.743 166.54 127.48 169.081 127.48V125.48ZM163.94 123.719C162.685 122.595 161.969 120.816 161.969 118.176H159.969C159.969 121.168 160.789 123.581 162.606 125.209L163.94 123.719ZM161.969 118.176C161.969 115.655 162.833 113.952 164.455 112.862L163.339 111.202C161.057 112.736 159.969 115.129 159.969 118.176H161.969ZM164.464 112.856C166.187 111.67 168.89 110.949 172.714 110.823L172.648 108.825C168.665 108.955 165.512 109.706 163.33 111.208L164.464 112.856ZM172.713 110.824L177.273 110.68L177.21 108.68L172.65 108.824L172.713 110.824ZM178.241 109.68V108.528H176.241V109.68H178.241ZM178.241 108.528C178.241 106.986 177.826 105.647 176.793 104.749L175.481 106.259C175.92 106.641 176.241 107.318 176.241 108.528H178.241ZM176.81 104.764C175.866 103.906 174.603 103.544 173.161 103.544V105.544C174.28 105.544 175 105.822 175.464 106.244L176.81 104.764ZM173.161 103.544C171.779 103.544 170.43 103.752 169.116 104.166L169.718 106.074C170.836 105.72 171.983 105.544 173.161 105.544V103.544ZM169.139 104.159C167.876 104.525 166.617 104.989 165.361 105.551L166.177 107.377C167.353 106.851 168.526 106.419 169.695 106.081L169.139 104.159ZM166.669 106.028L164.317 101.18L162.517 102.052L164.869 106.9L166.669 106.028ZM163.88 102.502C165.21 101.807 166.686 101.258 168.311 100.859L167.835 98.9168C166.068 99.3501 164.44 99.953 162.954 100.73L163.88 102.502ZM168.307 100.86C169.955 100.463 171.668 100.264 173.449 100.264V98.264C171.518 98.264 169.647 98.4805 167.839 98.9158L168.307 100.86ZM177.207 112.857L174.423 112.953L174.492 114.951L177.276 114.855L177.207 112.857ZM174.429 112.952C172.083 113.018 170.179 113.436 169.006 114.441L170.308 115.959C170.928 115.428 172.224 115.014 174.485 114.952L174.429 112.952ZM169.006 114.441C167.875 115.411 167.313 116.703 167.313 118.224H169.313C169.313 117.249 169.648 116.525 170.308 115.959L169.006 114.441ZM167.313 118.224C167.313 119.505 167.698 120.644 168.673 121.376L169.873 119.776C169.569 119.548 169.313 119.119 169.313 118.224H167.313ZM168.7 121.395C169.553 121.993 170.603 122.248 171.769 122.248V120.248C170.887 120.248 170.273 120.055 169.847 119.757L168.7 121.395ZM171.769 122.248C173.514 122.248 175.047 121.733 176.304 120.667L175.01 119.141C174.155 119.867 173.096 120.248 171.769 120.248V122.248ZM176.317 120.655C177.629 119.502 178.241 117.91 178.241 116.016H176.241C176.241 117.45 175.797 118.45 174.997 119.153L176.317 120.655ZM178.241 116.016V113.856H176.241V116.016H178.241ZM200.402 100.416L199.586 99.8383L199.586 99.8383L200.402 100.416ZM200.21 117.456L199.378 118.011L199.383 118.018L199.388 118.026L200.21 117.456ZM210.962 119.952L210.74 118.977L210.735 118.978L210.962 119.952ZM215.522 118.608H216.522V117.195L215.189 117.665L215.522 118.608ZM215.522 124.704L215.897 125.631L216.522 125.378V124.704H215.522ZM211.058 126.048L211.25 127.029L211.25 127.029L211.058 126.048ZM197.378 124.32L196.834 125.159L196.841 125.164L196.848 125.168L197.378 124.32ZM192.338 118.176L191.412 118.555L191.414 118.559L192.338 118.176ZM192.578 99.744L191.673 99.3187L191.673 99.3187L192.578 99.744ZM198.002 93.504L197.471 92.6566L197.466 92.6599L198.002 93.504ZM211.874 91.92L211.618 92.8868L211.629 92.8896L211.64 92.8922L211.874 91.92ZM216.818 93.648L217.747 94.0181L218.095 93.143L217.243 92.7428L216.818 93.648ZM214.466 99.552L214.037 100.455L215 100.913L215.395 99.9221L214.466 99.552ZM210.578 97.968L210.248 98.9119L210.255 98.9143L210.578 97.968ZM206.786 96.296C203.712 96.296 201.264 97.466 199.586 99.8383L201.218 100.994C202.483 99.206 204.291 98.296 206.786 98.296V96.296ZM199.586 99.8383C197.953 102.145 197.194 105.221 197.194 108.96H199.194C199.194 105.467 199.906 102.847 201.218 100.994L199.586 99.8383ZM197.194 108.96C197.194 112.712 197.882 115.767 199.378 118.011L201.042 116.901C199.85 115.113 199.194 112.504 199.194 108.96H197.194ZM199.388 118.026C200.997 120.346 203.541 121.432 206.786 121.432V119.432C204.015 119.432 202.174 118.534 201.032 116.886L199.388 118.026ZM206.786 121.432C208.27 121.432 209.738 121.263 211.188 120.926L210.735 118.978C209.433 119.281 208.117 119.432 206.786 119.432V121.432ZM211.183 120.927C212.636 120.597 214.193 120.137 215.855 119.551L215.189 117.665C213.587 118.231 212.104 118.667 210.74 118.977L211.183 120.927ZM214.522 118.608V124.704H216.522V118.608H214.522ZM215.147 123.777C213.697 124.363 212.271 124.792 210.866 125.067L211.25 127.029C212.789 126.728 214.338 126.261 215.897 125.631L215.147 123.777ZM210.866 125.067C209.469 125.34 207.887 125.48 206.114 125.48V127.48C207.989 127.48 209.703 127.332 211.25 127.029L210.866 125.067ZM206.114 125.48C202.727 125.48 200.012 124.787 197.908 123.472L196.848 125.168C199.351 126.733 202.461 127.48 206.114 127.48V125.48ZM197.922 123.481C195.828 122.124 194.276 120.24 193.262 117.793L191.414 118.559C192.576 121.36 194.384 123.572 196.834 125.159L197.922 123.481ZM193.263 117.797C192.234 115.285 191.706 112.331 191.706 108.912H189.706C189.706 112.533 190.265 115.755 191.413 118.555L193.263 117.797ZM191.706 108.912C191.706 105.577 192.308 102.671 193.483 100.169L191.673 99.3187C190.352 102.129 189.706 105.335 189.706 108.912H191.706ZM193.483 100.169C194.654 97.6768 196.338 95.7455 198.538 94.3481L197.466 92.6599C194.93 94.2705 192.998 96.4992 191.673 99.3187L193.483 100.169ZM198.533 94.3514C200.742 92.9671 203.476 92.248 206.786 92.248V90.248C203.184 90.248 200.062 91.0329 197.471 92.6566L198.533 94.3514ZM206.786 92.248C208.393 92.248 210.003 92.4601 211.618 92.8868L212.129 90.9532C210.353 90.4839 208.571 90.248 206.786 90.248V92.248ZM211.64 92.8922C213.304 93.2928 214.888 93.8467 216.393 94.5532L217.243 92.7428C215.612 91.9773 213.9 91.3792 212.108 90.9478L211.64 92.8922ZM215.889 93.2779L213.537 99.1819L215.395 99.9221L217.747 94.0181L215.889 93.2779ZM214.895 98.6487C213.581 98.0247 212.25 97.4822 210.901 97.0216L210.255 98.9143C211.53 99.3498 212.791 99.8633 214.037 100.455L214.895 98.6487ZM210.908 97.0241C209.531 96.5422 208.156 96.296 206.786 96.296V98.296C207.912 98.296 209.065 98.4978 210.248 98.9119L210.908 97.0241ZM241.62 102.432L240.919 103.145L240.924 103.15L241.62 102.432ZM244.788 114.672V115.672H245.788V114.672H244.788ZM227.892 114.672V113.672H226.86L226.893 114.704L227.892 114.672ZM229.668 119.424L228.951 120.121L228.961 120.131L229.668 119.424ZM239.028 120.672L239.255 121.646L239.266 121.644L239.276 121.641L239.028 120.672ZM243.3 119.088H244.3V117.501L242.869 118.186L243.3 119.088ZM243.3 124.608L243.748 125.502L244.3 125.226V124.608H243.3ZM239.22 126L239.024 125.019L239.011 125.022L238.999 125.025L239.22 126ZM227.124 125.04L226.683 125.937L226.694 125.943L227.124 125.04ZM222.372 120.576L221.508 121.078L221.508 121.078L222.372 120.576ZM222.18 105.456L221.292 104.998L221.289 105.003L222.18 105.456ZM226.548 100.848L226.065 99.9724L226.065 99.9724L226.548 100.848ZM229.62 105.744L228.926 105.025L228.919 105.031L228.913 105.037L229.62 105.744ZM228.036 109.92L227.04 109.836L226.948 110.92H228.036V109.92ZM238.068 109.92V110.92H239.089L239.068 109.9L238.068 109.92ZM236.82 105.984L236.023 106.588L236.028 106.594L236.032 106.6L236.82 105.984ZM233.028 100.312C236.443 100.312 239.033 101.288 240.919 103.144L242.322 101.72C239.983 99.4163 236.846 98.312 233.028 98.312V100.312ZM240.924 103.15C242.789 104.958 243.788 107.595 243.788 111.216H245.788C245.788 107.221 244.676 104.002 242.317 101.714L240.924 103.15ZM243.788 111.216V114.672H245.788V111.216H243.788ZM244.788 113.672H227.892V115.672H244.788V113.672ZM226.893 114.704C226.963 116.903 227.616 118.748 228.951 120.121L230.385 118.727C229.48 117.796 228.95 116.473 228.892 114.64L226.893 114.704ZM228.961 120.131C230.343 121.513 232.206 122.152 234.42 122.152V120.152C232.603 120.152 231.298 119.639 230.375 118.717L228.961 120.131ZM234.42 122.152C236.178 122.152 237.792 121.986 239.255 121.646L238.802 119.698C237.513 119.998 236.055 120.152 234.42 120.152V122.152ZM239.276 121.641C240.724 121.27 242.209 120.718 243.732 119.99L242.869 118.186C241.447 118.866 240.085 119.37 238.781 119.703L239.276 121.641ZM242.3 119.088V124.608H244.3V119.088H242.3ZM242.853 123.714C241.655 124.313 240.379 124.748 239.024 125.019L239.416 126.981C240.941 126.676 242.386 126.183 243.748 125.502L242.853 123.714ZM238.999 125.025C237.686 125.323 236.053 125.48 234.084 125.48V127.48C236.148 127.48 237.939 127.317 239.442 126.975L238.999 125.025ZM234.084 125.48C231.583 125.48 229.414 125.023 227.554 124.137L226.694 125.943C228.866 126.977 231.337 127.48 234.084 127.48V125.48ZM227.566 124.143C225.731 123.24 224.292 121.891 223.237 120.074L221.508 121.078C222.756 123.229 224.486 124.856 226.683 125.937L227.566 124.143ZM223.237 120.074C222.197 118.283 221.644 115.973 221.644 113.088H219.644C219.644 116.219 220.244 118.901 221.508 121.078L223.237 120.074ZM221.644 113.088C221.644 110.12 222.14 107.743 223.072 105.909L221.289 105.003C220.173 107.201 219.644 109.912 219.644 113.088H221.644ZM223.069 105.914C224.043 104.026 225.364 102.643 227.031 101.724L226.065 99.9724C224.021 101.101 222.43 102.79 221.292 104.998L223.069 105.914ZM227.031 101.724C228.717 100.794 230.706 100.312 233.028 100.312V98.312C230.423 98.312 228.092 98.8544 226.065 99.9724L227.031 101.724ZM233.076 103.4C231.46 103.4 230.053 103.936 228.926 105.025L230.315 106.463C231.043 105.76 231.94 105.4 233.076 105.4V103.4ZM228.913 105.037C227.785 106.165 227.21 107.825 227.04 109.836L229.033 110.004C229.182 108.239 229.664 107.115 230.327 106.451L228.913 105.037ZM228.036 110.92H238.068V108.92H228.036V110.92ZM239.068 109.9C239.033 108.135 238.57 106.599 237.608 105.368L236.032 106.6C236.671 107.417 237.04 108.505 237.069 109.94L239.068 109.9ZM237.617 105.38C236.577 104.007 234.989 103.4 233.076 103.4V105.4C234.556 105.4 235.464 105.849 236.023 106.588L237.617 105.38ZM272.332 102.768L271.548 103.389L271.552 103.394L272.332 102.768ZM272.236 123.024L273.009 123.658L273.013 123.653L272.236 123.024ZM260.476 125.472L259.944 126.319L259.952 126.324L259.961 126.329L260.476 125.472ZM257.74 123.12L258.515 122.488L258.215 122.12H257.74V123.12ZM257.356 123.12V122.12H256.147L256.373 123.307L257.356 123.12ZM257.74 137.52V138.52H258.74V137.52H257.74ZM250.588 137.52H249.588V138.52H250.588V137.52ZM250.588 99.792V98.792H249.588V99.792H250.588ZM256.396 99.792L257.355 99.5084L257.143 98.792H256.396V99.792ZM257.404 103.2L256.445 103.484L256.657 104.2H257.404V103.2ZM257.74 103.2V104.2H258.275L258.572 103.755L257.74 103.2ZM260.572 100.464L261.116 101.303L261.116 101.303L260.572 100.464ZM258.94 106.752L258.108 106.197L258.102 106.205L258.097 106.214L258.94 106.752ZM257.74 112.032L256.74 112.005L256.74 112.018V112.032H257.74ZM258.844 118.656L257.962 119.128L257.969 119.14L257.976 119.152L258.844 118.656ZM266.572 118.656L265.707 118.153L265.704 118.16L266.572 118.656ZM265.18 100.312C267.819 100.312 269.914 101.325 271.548 103.389L273.116 102.147C271.102 99.6032 268.429 98.312 265.18 98.312V100.312ZM271.552 103.394C273.175 105.416 274.068 108.514 274.068 112.848H276.068C276.068 108.286 275.136 104.664 273.112 102.142L271.552 103.394ZM274.068 112.848C274.068 117.173 273.147 120.305 271.458 122.395L273.013 123.653C275.1 121.071 276.068 117.419 276.068 112.848H274.068ZM271.462 122.39C269.762 124.466 267.628 125.48 264.988 125.48V127.48C268.236 127.48 270.934 126.19 273.009 123.658L271.462 122.39ZM264.988 125.48C263.205 125.48 261.9 125.161 260.99 124.615L259.961 126.329C261.291 127.127 262.995 127.48 264.988 127.48V125.48ZM261.008 124.625C259.963 123.969 259.139 123.254 258.515 122.488L256.965 123.752C257.749 124.714 258.748 125.567 259.944 126.319L261.008 124.625ZM257.74 122.12H257.356V124.12H257.74V122.12ZM256.373 123.307C256.619 124.597 256.74 125.814 256.74 126.96H258.74C258.74 125.674 258.604 124.331 258.338 122.933L256.373 123.307ZM256.74 126.96V137.52H258.74V126.96H256.74ZM257.74 136.52H250.588V138.52H257.74V136.52ZM251.588 137.52V99.792H249.588V137.52H251.588ZM250.588 100.792H256.396V98.792H250.588V100.792ZM255.437 100.076L256.445 103.484L258.363 102.916L257.355 99.5084L255.437 100.076ZM257.404 104.2H257.74V102.2H257.404V104.2ZM258.572 103.755C259.192 102.824 260.033 102.005 261.116 101.303L260.028 99.625C258.742 100.459 257.695 101.464 256.908 102.645L258.572 103.755ZM261.116 101.303C262.092 100.67 263.421 100.312 265.18 100.312V98.312C263.162 98.312 261.42 98.7219 260.028 99.625L261.116 101.303ZM262.876 104.024C260.811 104.024 259.122 104.677 258.108 106.197L259.772 107.307C260.294 106.523 261.228 106.024 262.876 106.024V104.024ZM258.097 106.214C257.215 107.594 256.806 109.572 256.74 112.005L258.739 112.059C258.802 109.756 259.192 108.214 259.782 107.29L258.097 106.214ZM256.74 112.032V112.8H258.74V112.032H256.74ZM256.74 112.8C256.74 115.402 257.115 117.543 257.962 119.128L259.726 118.184C259.101 117.017 258.74 115.254 258.74 112.8H256.74ZM257.976 119.152C258.973 120.897 260.746 121.672 262.972 121.672V119.672C261.23 119.672 260.251 119.103 259.712 118.16L257.976 119.152ZM262.972 121.672C264.939 121.672 266.482 120.828 267.44 119.152L265.704 118.16C265.125 119.172 264.269 119.672 262.972 119.672V121.672ZM267.436 119.159C268.363 117.564 268.772 115.392 268.772 112.752H266.772C266.772 115.232 266.38 116.996 265.707 118.153L267.436 119.159ZM268.772 112.752C268.772 110.103 268.358 107.945 267.392 106.421C266.378 104.82 264.821 104.024 262.876 104.024V106.024C264.194 106.024 265.085 106.516 265.703 107.491C266.37 108.543 266.772 110.249 266.772 112.752H268.772Z" fill="white"/>
<path d="M122.352 131.288C123.061 131.288 123.584 131.424 123.92 131.696C124.261 131.963 124.432 132.368 124.432 132.912C124.432 133.216 124.376 133.469 124.264 133.672C124.152 133.875 124.008 134.037 123.832 134.16C123.661 134.277 123.48 134.371 123.288 134.44L124.856 137H124.016L122.632 134.64H121.496V137H120.776V131.288H122.352ZM122.312 131.912H121.496V134.032H122.352C122.816 134.032 123.155 133.941 123.368 133.76C123.581 133.573 123.688 133.301 123.688 132.944C123.688 132.571 123.576 132.307 123.352 132.152C123.128 131.992 122.781 131.912 122.312 131.912ZM127.313 132.632C127.681 132.632 127.995 132.712 128.257 132.872C128.523 133.032 128.726 133.259 128.865 133.552C129.009 133.84 129.081 134.179 129.081 134.568V134.992H126.145C126.155 135.477 126.278 135.848 126.513 136.104C126.753 136.355 127.086 136.48 127.513 136.48C127.785 136.48 128.025 136.456 128.233 136.408C128.446 136.355 128.665 136.28 128.889 136.184V136.8C128.67 136.896 128.454 136.965 128.241 137.008C128.027 137.056 127.774 137.08 127.481 137.08C127.075 137.08 126.715 136.997 126.401 136.832C126.091 136.667 125.849 136.421 125.673 136.096C125.502 135.765 125.417 135.363 125.417 134.888C125.417 134.419 125.494 134.016 125.649 133.68C125.809 133.344 126.03 133.085 126.313 132.904C126.601 132.723 126.934 132.632 127.313 132.632ZM127.305 133.208C126.969 133.208 126.702 133.317 126.505 133.536C126.313 133.749 126.198 134.048 126.161 134.432H128.345C128.339 134.069 128.254 133.776 128.089 133.552C127.923 133.323 127.662 133.208 127.305 133.208ZM131.796 132.64C132.319 132.64 132.706 132.755 132.956 132.984C133.207 133.213 133.332 133.579 133.332 134.08V137H132.82L132.684 136.392H132.652C132.466 136.627 132.268 136.8 132.06 136.912C131.858 137.024 131.575 137.08 131.212 137.08C130.823 137.08 130.5 136.979 130.244 136.776C129.988 136.568 129.86 136.245 129.86 135.808C129.86 135.381 130.028 135.053 130.364 134.824C130.7 134.589 131.218 134.461 131.916 134.44L132.644 134.416V134.16C132.644 133.803 132.567 133.555 132.412 133.416C132.258 133.277 132.039 133.208 131.756 133.208C131.532 133.208 131.319 133.243 131.116 133.312C130.914 133.376 130.724 133.451 130.548 133.536L130.332 133.008C130.519 132.907 130.74 132.821 130.996 132.752C131.252 132.677 131.519 132.64 131.796 132.64ZM132.636 134.904L132.004 134.928C131.471 134.949 131.1 135.035 130.892 135.184C130.69 135.333 130.588 135.544 130.588 135.816C130.588 136.056 130.66 136.232 130.804 136.344C130.954 136.456 131.143 136.512 131.372 136.512C131.735 136.512 132.036 136.413 132.276 136.216C132.516 136.013 132.636 135.704 132.636 135.288V134.904ZM136.377 137.08C135.998 137.08 135.659 137.003 135.361 136.848C135.067 136.693 134.835 136.453 134.665 136.128C134.499 135.803 134.417 135.387 134.417 134.88C134.417 134.352 134.505 133.923 134.681 133.592C134.857 133.261 135.094 133.019 135.393 132.864C135.697 132.709 136.041 132.632 136.425 132.632C136.643 132.632 136.854 132.656 137.057 132.704C137.259 132.747 137.425 132.8 137.553 132.864L137.337 133.448C137.209 133.4 137.059 133.355 136.889 133.312C136.718 133.269 136.558 133.248 136.409 133.248C135.566 133.248 135.145 133.789 135.145 134.872C135.145 135.389 135.246 135.787 135.449 136.064C135.657 136.336 135.963 136.472 136.369 136.472C136.603 136.472 136.809 136.448 136.985 136.4C137.166 136.352 137.331 136.293 137.481 136.224V136.848C137.337 136.923 137.177 136.979 137.001 137.016C136.83 137.059 136.622 137.08 136.377 137.08ZM139.932 136.504C140.039 136.504 140.148 136.496 140.26 136.48C140.372 136.459 140.463 136.437 140.532 136.416V136.952C140.458 136.989 140.351 137.019 140.212 137.04C140.074 137.067 139.94 137.08 139.812 137.08C139.588 137.08 139.38 137.043 139.188 136.968C139.002 136.888 138.85 136.752 138.732 136.56C138.615 136.368 138.556 136.099 138.556 135.752V133.256H137.948V132.92L138.564 132.64L138.844 131.728H139.26V132.712H140.5V133.256H139.26V135.736C139.26 135.997 139.322 136.192 139.444 136.32C139.572 136.443 139.735 136.504 139.932 136.504ZM144.173 130.92V132.704C144.173 132.917 144.16 133.117 144.133 133.304H144.181C144.32 133.085 144.506 132.92 144.741 132.808C144.981 132.696 145.24 132.64 145.517 132.64C146.04 132.64 146.432 132.765 146.693 133.016C146.954 133.261 147.085 133.659 147.085 134.208V137H146.389V134.256C146.389 133.568 146.069 133.224 145.429 133.224C144.949 133.224 144.618 133.36 144.437 133.632C144.261 133.899 144.173 134.283 144.173 134.784V137H143.469V130.92H144.173ZM152.142 134.848C152.142 135.557 151.961 136.107 151.598 136.496C151.241 136.885 150.756 137.08 150.142 137.08C149.764 137.08 149.425 136.995 149.126 136.824C148.833 136.648 148.601 136.395 148.43 136.064C148.26 135.728 148.174 135.323 148.174 134.848C148.174 134.139 148.353 133.592 148.71 133.208C149.068 132.824 149.553 132.632 150.166 132.632C150.556 132.632 150.897 132.72 151.19 132.896C151.489 133.067 151.721 133.317 151.886 133.648C152.057 133.973 152.142 134.373 152.142 134.848ZM148.902 134.848C148.902 135.355 149.001 135.757 149.198 136.056C149.401 136.349 149.721 136.496 150.158 136.496C150.59 136.496 150.908 136.349 151.11 136.056C151.313 135.757 151.414 135.355 151.414 134.848C151.414 134.341 151.313 133.944 151.11 133.656C150.908 133.368 150.588 133.224 150.15 133.224C149.713 133.224 149.396 133.368 149.198 133.656C149.001 133.944 148.902 134.341 148.902 134.848ZM156.986 134.848C156.986 135.557 156.805 136.107 156.442 136.496C156.085 136.885 155.599 137.08 154.986 137.08C154.607 137.08 154.269 136.995 153.97 136.824C153.677 136.648 153.445 136.395 153.274 136.064C153.103 135.728 153.018 135.323 153.018 134.848C153.018 134.139 153.197 133.592 153.554 133.208C153.911 132.824 154.397 132.632 155.01 132.632C155.399 132.632 155.741 132.72 156.034 132.896C156.333 133.067 156.565 133.317 156.73 133.648C156.901 133.973 156.986 134.373 156.986 134.848ZM153.746 134.848C153.746 135.355 153.845 135.757 154.042 136.056C154.245 136.349 154.565 136.496 155.002 136.496C155.434 136.496 155.751 136.349 155.954 136.056C156.157 135.757 156.258 135.355 156.258 134.848C156.258 134.341 156.157 133.944 155.954 133.656C155.751 133.368 155.431 133.224 154.994 133.224C154.557 133.224 154.239 133.368 154.042 133.656C153.845 133.944 153.746 134.341 153.746 134.848ZM158.798 130.92V134.096C158.798 134.181 158.793 134.293 158.782 134.432C158.777 134.571 158.771 134.691 158.766 134.792H158.798C158.83 134.749 158.878 134.688 158.942 134.608C159.006 134.528 159.07 134.448 159.134 134.368C159.203 134.283 159.262 134.213 159.31 134.16L160.678 132.712H161.502L159.766 134.544L161.622 137H160.774L159.286 135L158.798 135.424V137H158.102V130.92H158.798ZM165.885 136.504C165.992 136.504 166.101 136.496 166.213 136.48C166.325 136.459 166.416 136.437 166.485 136.416V136.952C166.411 136.989 166.304 137.019 166.165 137.04C166.027 137.067 165.893 137.08 165.765 137.08C165.541 137.08 165.333 137.043 165.141 136.968C164.955 136.888 164.803 136.752 164.685 136.56C164.568 136.368 164.509 136.099 164.509 135.752V133.256H163.901V132.92L164.517 132.64L164.797 131.728H165.213V132.712H166.453V133.256H165.213V135.736C165.213 135.997 165.275 136.192 165.397 136.32C165.525 136.443 165.688 136.504 165.885 136.504ZM171.072 134.848C171.072 135.557 170.891 136.107 170.528 136.496C170.171 136.885 169.685 137.08 169.072 137.08C168.693 137.08 168.355 136.995 168.056 136.824C167.763 136.648 167.531 136.395 167.36 136.064C167.189 135.728 167.104 135.323 167.104 134.848C167.104 134.139 167.283 133.592 167.64 133.208C167.997 132.824 168.483 132.632 169.096 132.632C169.485 132.632 169.827 132.72 170.12 132.896C170.419 133.067 170.651 133.317 170.816 133.648C170.987 133.973 171.072 134.373 171.072 134.848ZM167.832 134.848C167.832 135.355 167.931 135.757 168.128 136.056C168.331 136.349 168.651 136.496 169.088 136.496C169.52 136.496 169.837 136.349 170.04 136.056C170.243 135.757 170.344 135.355 170.344 134.848C170.344 134.341 170.243 133.944 170.04 133.656C169.837 133.368 169.517 133.224 169.08 133.224C168.643 133.224 168.325 133.368 168.128 133.656C167.931 133.944 167.832 134.341 167.832 134.848ZM176.242 133.256H175.162V137H174.458V133.256H173.706V132.928L174.458 132.688V132.44C174.458 131.885 174.581 131.488 174.826 131.248C175.071 131.003 175.413 130.88 175.85 130.88C176.021 130.88 176.175 130.896 176.314 130.928C176.458 130.955 176.581 130.987 176.682 131.024L176.498 131.576C176.413 131.549 176.314 131.523 176.202 131.496C176.09 131.469 175.975 131.456 175.858 131.456C175.623 131.456 175.447 131.536 175.33 131.696C175.218 131.851 175.162 132.096 175.162 132.432V132.712H176.242V133.256ZM178.672 132.632C179.04 132.632 179.355 132.712 179.616 132.872C179.883 133.032 180.085 133.259 180.224 133.552C180.368 133.84 180.44 134.179 180.44 134.568V134.992H177.504C177.515 135.477 177.637 135.848 177.872 136.104C178.112 136.355 178.445 136.48 178.872 136.48C179.144 136.48 179.384 136.456 179.592 136.408C179.805 136.355 180.024 136.28 180.248 136.184V136.8C180.029 136.896 179.813 136.965 179.6 137.008C179.387 137.056 179.133 137.08 178.84 137.08C178.435 137.08 178.075 136.997 177.76 136.832C177.451 136.667 177.208 136.421 177.032 136.096C176.861 135.765 176.776 135.363 176.776 134.888C176.776 134.419 176.853 134.016 177.008 133.68C177.168 133.344 177.389 133.085 177.672 132.904C177.96 132.723 178.293 132.632 178.672 132.632ZM178.664 133.208C178.328 133.208 178.061 133.317 177.864 133.536C177.672 133.749 177.557 134.048 177.52 134.432H179.704C179.699 134.069 179.613 133.776 179.448 133.552C179.283 133.323 179.021 133.208 178.664 133.208ZM182.964 136.504C183.07 136.504 183.18 136.496 183.292 136.48C183.404 136.459 183.494 136.437 183.564 136.416V136.952C183.489 136.989 183.382 137.019 183.244 137.04C183.105 137.067 182.972 137.08 182.844 137.08C182.62 137.08 182.412 137.043 182.22 136.968C182.033 136.888 181.881 136.752 181.764 136.56C181.646 136.368 181.588 136.099 181.588 135.752V133.256H180.98V132.92L181.596 132.64L181.876 131.728H182.292V132.712H183.532V133.256H182.292V135.736C182.292 135.997 182.353 136.192 182.476 136.32C182.604 136.443 182.766 136.504 182.964 136.504ZM186.142 137.08C185.764 137.08 185.425 137.003 185.126 136.848C184.833 136.693 184.601 136.453 184.43 136.128C184.265 135.803 184.182 135.387 184.182 134.88C184.182 134.352 184.27 133.923 184.446 133.592C184.622 133.261 184.86 133.019 185.158 132.864C185.462 132.709 185.806 132.632 186.19 132.632C186.409 132.632 186.62 132.656 186.822 132.704C187.025 132.747 187.19 132.8 187.318 132.864L187.102 133.448C186.974 133.4 186.825 133.355 186.654 133.312C186.484 133.269 186.324 133.248 186.174 133.248C185.332 133.248 184.91 133.789 184.91 134.872C184.91 135.389 185.012 135.787 185.214 136.064C185.422 136.336 185.729 136.472 186.134 136.472C186.369 136.472 186.574 136.448 186.75 136.4C186.932 136.352 187.097 136.293 187.246 136.224V136.848C187.102 136.923 186.942 136.979 186.766 137.016C186.596 137.059 186.388 137.08 186.142 137.08ZM188.97 130.92V132.704C188.97 132.917 188.957 133.117 188.93 133.304H188.978C189.117 133.085 189.303 132.92 189.538 132.808C189.778 132.696 190.037 132.64 190.314 132.64C190.837 132.64 191.229 132.765 191.49 133.016C191.751 133.261 191.882 133.659 191.882 134.208V137H191.186V134.256C191.186 133.568 190.866 133.224 190.226 133.224C189.746 133.224 189.415 133.36 189.234 133.632C189.058 133.899 188.97 134.283 188.97 134.784V137H188.266V130.92H188.97ZM195.385 131.288H197.017C197.732 131.288 198.271 131.395 198.633 131.608C199.001 131.816 199.185 132.181 199.185 132.704C199.185 133.04 199.092 133.32 198.905 133.544C198.719 133.763 198.449 133.904 198.097 133.968V134.008C198.337 134.045 198.553 134.115 198.745 134.216C198.943 134.317 199.097 134.461 199.209 134.648C199.321 134.835 199.377 135.077 199.377 135.376C199.377 135.893 199.199 136.293 198.841 136.576C198.489 136.859 198.007 137 197.393 137H195.385V131.288ZM196.105 133.72H197.161C197.652 133.72 197.988 133.643 198.169 133.488C198.351 133.328 198.441 133.093 198.441 132.784C198.441 132.469 198.329 132.245 198.105 132.112C197.887 131.973 197.535 131.904 197.049 131.904H196.105V133.72ZM196.105 134.32V136.392H197.257C197.764 136.392 198.116 136.293 198.313 136.096C198.511 135.899 198.609 135.64 198.609 135.32C198.609 135.021 198.505 134.781 198.297 134.6C198.095 134.413 197.729 134.32 197.201 134.32H196.105ZM202.493 132.632C202.573 132.632 202.658 132.637 202.749 132.648C202.845 132.653 202.927 132.664 202.997 132.68L202.909 133.328C202.839 133.312 202.762 133.299 202.677 133.288C202.597 133.277 202.519 133.272 202.445 133.272C202.226 133.272 202.021 133.333 201.829 133.456C201.637 133.573 201.482 133.741 201.365 133.96C201.253 134.173 201.197 134.424 201.197 134.712V137H200.493V132.712H201.069L201.149 133.496H201.181C201.319 133.261 201.498 133.059 201.717 132.888C201.935 132.717 202.194 132.632 202.493 132.632ZM205.265 132.64C205.788 132.64 206.174 132.755 206.425 132.984C206.676 133.213 206.801 133.579 206.801 134.08V137H206.289L206.153 136.392H206.121C205.934 136.627 205.737 136.8 205.529 136.912C205.326 137.024 205.044 137.08 204.681 137.08C204.292 137.08 203.969 136.979 203.713 136.776C203.457 136.568 203.329 136.245 203.329 135.808C203.329 135.381 203.497 135.053 203.833 134.824C204.169 134.589 204.686 134.461 205.385 134.44L206.113 134.416V134.16C206.113 133.803 206.036 133.555 205.881 133.416C205.726 133.277 205.508 133.208 205.225 133.208C205.001 133.208 204.788 133.243 204.585 133.312C204.382 133.376 204.193 133.451 204.017 133.536L203.801 133.008C203.988 132.907 204.209 132.821 204.465 132.752C204.721 132.677 204.988 132.64 205.265 132.64ZM206.105 134.904L205.473 134.928C204.94 134.949 204.569 135.035 204.361 135.184C204.158 135.333 204.057 135.544 204.057 135.816C204.057 136.056 204.129 136.232 204.273 136.344C204.422 136.456 204.612 136.512 204.841 136.512C205.204 136.512 205.505 136.413 205.745 136.216C205.985 136.013 206.105 135.704 206.105 135.288V134.904ZM210.893 137H207.757V136.536L210.061 133.256H207.893V132.712H210.837V133.24L208.565 136.456H210.893V137ZM212.243 131.104C212.35 131.104 212.443 131.141 212.523 131.216C212.608 131.285 212.651 131.397 212.651 131.552C212.651 131.701 212.608 131.813 212.523 131.888C212.443 131.963 212.35 132 212.243 132C212.126 132 212.027 131.963 211.947 131.888C211.867 131.813 211.827 131.701 211.827 131.552C211.827 131.397 211.867 131.285 211.947 131.216C212.027 131.141 212.126 131.104 212.243 131.104ZM212.587 132.712V137H211.883V132.712H212.587ZM214.65 137H213.946V130.92H214.65V137ZM216.368 131.104C216.475 131.104 216.568 131.141 216.648 131.216C216.733 131.285 216.776 131.397 216.776 131.552C216.776 131.701 216.733 131.813 216.648 131.888C216.568 131.963 216.475 132 216.368 132C216.251 132 216.152 131.963 216.072 131.888C215.992 131.813 215.952 131.701 215.952 131.552C215.952 131.397 215.992 131.285 216.072 131.216C216.152 131.141 216.251 131.104 216.368 131.104ZM216.712 132.712V137H216.008V132.712H216.712ZM219.695 132.64C220.217 132.64 220.604 132.755 220.855 132.984C221.105 133.213 221.231 133.579 221.231 134.08V137H220.719L220.583 136.392H220.551C220.364 136.627 220.167 136.8 219.959 136.912C219.756 137.024 219.473 137.08 219.111 137.08C218.721 137.08 218.399 136.979 218.143 136.776C217.887 136.568 217.759 136.245 217.759 135.808C217.759 135.381 217.927 135.053 218.263 134.824C218.599 134.589 219.116 134.461 219.815 134.44L220.543 134.416V134.16C220.543 133.803 220.465 133.555 220.311 133.416C220.156 133.277 219.937 133.208 219.655 133.208C219.431 133.208 219.217 133.243 219.015 133.312C218.812 133.376 218.623 133.451 218.447 133.536L218.231 133.008C218.417 132.907 218.639 132.821 218.895 132.752C219.151 132.677 219.417 132.64 219.695 132.64ZM220.535 134.904L219.903 134.928C219.369 134.949 218.999 135.035 218.791 135.184C218.588 135.333 218.487 135.544 218.487 135.816C218.487 136.056 218.559 136.232 218.703 136.344C218.852 136.456 219.041 136.512 219.271 136.512C219.633 136.512 219.935 136.413 220.175 136.216C220.415 136.013 220.535 135.704 220.535 135.288V134.904ZM224.619 132.632C225.131 132.632 225.518 132.757 225.779 133.008C226.04 133.253 226.171 133.653 226.171 134.208V137H225.475V134.256C225.475 133.568 225.155 133.224 224.515 133.224C224.04 133.224 223.712 133.357 223.531 133.624C223.35 133.891 223.259 134.275 223.259 134.776V137H222.555V132.712H223.123L223.227 133.296H223.267C223.406 133.072 223.598 132.907 223.843 132.8C224.088 132.688 224.347 132.632 224.619 132.632ZM232.122 131.84C231.509 131.84 231.026 132.045 230.674 132.456C230.322 132.867 230.146 133.429 230.146 134.144C230.146 134.853 230.309 135.416 230.634 135.832C230.965 136.243 231.458 136.448 232.114 136.448C232.365 136.448 232.602 136.427 232.826 136.384C233.05 136.341 233.269 136.288 233.482 136.224V136.848C233.269 136.928 233.048 136.987 232.818 137.024C232.594 137.061 232.325 137.08 232.01 137.08C231.429 137.08 230.944 136.96 230.554 136.72C230.165 136.48 229.872 136.139 229.674 135.696C229.482 135.253 229.386 134.733 229.386 134.136C229.386 133.56 229.49 133.053 229.698 132.616C229.912 132.173 230.224 131.829 230.634 131.584C231.045 131.333 231.544 131.208 232.13 131.208C232.733 131.208 233.258 131.32 233.706 131.544L233.418 132.152C233.242 132.072 233.045 132 232.826 131.936C232.613 131.872 232.378 131.84 232.122 131.84ZM237.921 137H234.729V131.288H237.921V131.92H235.449V133.704H237.777V134.328H235.449V136.368H237.921V137ZM240.686 131.288C241.433 131.288 241.977 131.435 242.318 131.728C242.66 132.021 242.83 132.435 242.83 132.968C242.83 133.283 242.758 133.579 242.614 133.856C242.476 134.128 242.238 134.349 241.902 134.52C241.572 134.691 241.121 134.776 240.55 134.776H239.894V137H239.174V131.288H240.686ZM240.622 131.904H239.894V134.16H240.47C241.014 134.16 241.42 134.072 241.686 133.896C241.953 133.72 242.086 133.421 242.086 133C242.086 132.632 241.969 132.357 241.734 132.176C241.5 131.995 241.129 131.904 240.622 131.904ZM244.49 131.288L244.546 131.376C244.477 131.653 244.376 131.965 244.242 132.312C244.114 132.653 243.986 132.965 243.858 133.248H243.338C243.392 133.045 243.442 132.829 243.49 132.6C243.544 132.365 243.592 132.136 243.634 131.912C243.677 131.683 243.712 131.475 243.738 131.288H244.49ZM247.87 135.816C247.87 136.232 247.716 136.547 247.406 136.76C247.097 136.973 246.681 137.08 246.158 137.08C245.86 137.08 245.601 137.056 245.382 137.008C245.169 136.96 244.98 136.893 244.814 136.808V136.168C244.985 136.253 245.19 136.333 245.43 136.408C245.676 136.477 245.924 136.512 246.174 136.512C246.532 136.512 246.79 136.456 246.95 136.344C247.11 136.227 247.19 136.072 247.19 135.88C247.19 135.773 247.161 135.677 247.102 135.592C247.044 135.507 246.937 135.421 246.782 135.336C246.633 135.251 246.417 135.155 246.134 135.048C245.857 134.941 245.62 134.835 245.422 134.728C245.225 134.621 245.073 134.493 244.966 134.344C244.86 134.195 244.806 134.003 244.806 133.768C244.806 133.405 244.953 133.125 245.246 132.928C245.545 132.731 245.934 132.632 246.414 132.632C246.676 132.632 246.918 132.659 247.142 132.712C247.372 132.76 247.585 132.829 247.782 132.92L247.542 133.48C247.361 133.405 247.172 133.341 246.974 133.288C246.777 133.235 246.574 133.208 246.366 133.208C246.078 133.208 245.857 133.256 245.702 133.352C245.553 133.443 245.478 133.568 245.478 133.728C245.478 133.845 245.513 133.947 245.582 134.032C245.652 134.112 245.766 134.192 245.926 134.272C246.092 134.347 246.31 134.437 246.582 134.544C246.854 134.645 247.086 134.749 247.278 134.856C247.47 134.963 247.617 135.093 247.718 135.248C247.82 135.397 247.87 135.587 247.87 135.816Z" fill="#8A8A8A"/>
<defs>
<clipPath id="clip0">
<rect width="90" height="90" transform="matrix(-1 0 0 1 131 41)" fill="white"/>
</clipPath>
</defs>
</svg>
